#tb 0: 1/60
#media_type 0: video
#codec_id 0: rawvideo
#dimensions 0: 320x240
#sar 0: 1/1
0,          0,          0,        1,   115200, 0x7262156b
0,         11,         11,        1,   115200, 0xa6aebc2f
0,         22,         22,        1,   115200, 0x9c7beba1
0,         33,         33,        1,   115200, 0x556037a2
0,         44,         44,        1,   115200, 0x532e3a23
0,         60,         60,        1,   115200, 0x110511f4
0,         71,         71,        1,   115200, 0xb7f929a4
0,         82,         82,        1,   115200, 0xdab9f3c2
0,         93,         93,        1,   115200, 0x441413dd
0,        104,        104,        1,   115200, 0x01163f33
0,        120,        120,        1,   115200, 0x47720c78
0,        131,        131,        1,   115200, 0x07c21356
0,        142,        142,        1,   115200, 0x085d4291
0,        153,        153,        1,   115200, 0xf6db074c
0,        164,        164,        1,   115200, 0x95093e75
0,        180,        180,        1,   115200, 0x5f8118ef
0,        191,        191,        1,   115200, 0x2b4de34a
0,        202,        202,        1,   115200, 0x0a731857
0,        213,        213,        1,   115200, 0xd75ef3be
0,        224,        224,        1,   115200, 0x321cf5a9
0,        240,        240,        1,   115200, 0x3eb222fd
0,        251,        251,        1,   115200, 0xc7d92f3e
0,        262,        262,        1,   115200, 0x6fda0366
0,        273,        273,        1,   115200, 0x6bb61b03
0,        284,        284,        1,   115200, 0x5f367ef8
0,        300,        300,        1,   115200, 0x237d0c77
0,        311,        311,        1,   115200, 0xafa813ef
0,        322,        322,        1,   115200, 0x39263ef4
0,        333,        333,        1,   115200, 0x47c70441
0,        344,        344,        1,   115200, 0xd43fffb0
0,        360,        360,        1,   115200, 0x75696afb
0,        371,        371,        1,   115200, 0xb0f117a3
0,        382,        382,        1,   115200, 0x002f42f0
0,        393,        393,        1,   115200, 0xa192487e
0,        404,        404,        1,   115200, 0x19a7072e
0,        420,        420,        1,   115200, 0xc500669c
0,        431,        431,        1,   115200, 0xe4636ba9
0,        442,        442,        1,   115200, 0xdf3d5d86
0,        453,        453,        1,   115200, 0xf30825d5
0,        464,        464,        1,   115200, 0xe3c944a1
0,        480,        480,        1,   115200, 0x8fec4420
0,        491,        491,        1,   115200, 0x9381fdab
